<svg width="262" height="96" viewBox="0 0 262 96" fill="none" xmlns="http://www.w3.org/2000/svg">
<g clip-path="url(#clip0_10_231)">
<path d="M135.266 31.7976L147.73 31.0026C148.015 33.0134 148.536 34.5097 149.389 35.5852C150.764 37.2686 152.66 38.1103 155.171 38.1103C157.02 38.1103 158.489 37.6894 159.484 36.801C160.432 36.0996 161.001 34.9773 161.001 33.8083C161.001 32.686 160.48 31.6105 159.579 30.9091C158.631 30.0674 156.404 29.2257 152.897 28.4776C147.162 27.215 143.038 25.5316 140.621 23.3806C138.204 21.3699 136.83 18.424 136.924 15.291C136.924 13.14 137.588 10.989 138.82 9.2121C140.242 7.20138 142.185 5.61151 144.508 4.72306C147.02 3.64756 150.527 3.08643 154.935 3.08643C160.338 3.08643 164.461 4.0684 167.305 6.07912C170.148 8.04307 171.855 11.2228 172.376 15.5716L160.053 16.273C159.721 14.4025 159.058 13.0465 157.968 12.158C156.878 11.2696 155.456 10.8487 153.607 10.8487C152.091 10.8487 150.953 11.1761 150.195 11.7839C149.484 12.3451 149.01 13.1868 149.058 14.122C149.058 14.8234 149.437 15.478 150.005 15.8989C150.622 16.46 152.091 16.9744 154.413 17.442C160.148 18.6578 164.224 19.8736 166.736 21.1361C169.248 22.3987 171.049 23.9418 172.139 25.7654C173.276 27.6359 173.845 29.7869 173.798 31.9846C173.798 34.6032 173.039 37.2218 171.523 39.4196C169.959 41.7109 167.779 43.4878 165.219 44.5633C162.518 45.7323 159.105 46.3402 155.029 46.3402C147.825 46.3402 142.849 44.9841 140.052 42.2253C137.256 39.4664 135.597 36.0061 135.266 31.7976ZM2.98589 45.6388V3.8346H24.835C28.8636 3.8346 31.9917 4.16192 34.1245 4.86334C36.2098 5.51799 38.0583 6.87405 39.2905 8.69773C40.665 10.7084 41.3285 13.0465 41.2811 15.478C41.4233 19.593 39.2905 23.5209 35.6411 25.5784C34.2192 26.3733 32.6552 26.9345 31.0438 27.215C32.2287 27.5423 33.4135 28.1035 34.4562 28.7581C35.2619 29.4128 35.9255 30.161 36.5416 30.9559C37.2525 31.7508 37.8687 32.6393 38.39 33.5745L44.741 45.6856H29.8589L22.8444 32.8263C21.9439 31.1897 21.1856 30.1142 20.4747 29.5998C19.5268 28.9452 18.3893 28.6178 17.2518 28.6178H16.1143V45.592H2.98589V45.6388ZM16.1143 20.762H21.6596C22.8444 20.6685 23.9819 20.4815 25.1194 20.2009C25.9725 20.0606 26.7308 19.593 27.2522 18.8916C28.5318 17.2082 28.3423 14.8234 26.7782 13.3738C25.9251 12.6724 24.2663 12.2983 21.8965 12.2983H16.1143V20.762ZM0 81.4576L12.4649 80.6627C12.7493 82.6734 13.2706 84.1697 14.1237 85.2452C15.4508 86.9286 17.394 87.8171 19.9059 87.8171C21.7543 87.8171 23.2236 87.3962 24.2189 86.5078C25.1668 85.7596 25.7355 84.6841 25.7355 83.5151C25.7355 82.3928 25.2142 81.3173 24.3137 80.6159C23.3658 79.7742 21.1382 78.9325 17.5836 78.1843C11.8488 76.9218 7.7254 75.2384 5.30825 73.0874C2.8911 71.0767 1.51664 68.1308 1.61143 64.9978C1.61143 62.8468 2.27496 60.6958 3.50724 58.9189C4.92909 56.9082 6.87229 55.3183 9.19465 54.4298C11.7066 53.3543 15.2138 52.7932 19.6216 52.7932C25.0246 52.7932 29.148 53.7752 31.9917 55.7859C34.8354 57.7966 36.4942 60.9296 37.0156 65.2783L24.6928 65.9798C24.3611 64.1093 23.6975 62.7533 22.6075 61.8648C21.5648 60.9763 20.0955 60.5555 18.2471 60.6023C16.7305 60.6023 15.593 60.9296 14.8347 61.5842C14.0763 62.1454 13.6498 62.9871 13.6972 63.9223C13.6972 64.6237 14.0763 65.2783 14.6451 65.6992C15.2612 66.2603 16.7305 66.7747 19.0528 67.2423C24.7876 68.4581 28.8636 69.6739 31.3755 70.9364C33.8875 72.1989 35.6885 73.7421 36.7786 75.5657C37.9161 77.4362 38.4848 79.5872 38.4848 81.7382C38.4848 84.3568 37.6791 86.9286 36.2098 89.1264C34.6458 91.4176 32.4656 93.1946 29.9063 94.2701C27.2048 95.4391 23.7923 96.047 19.7164 96.047C12.5123 96.047 7.53582 94.6909 4.73951 91.932C1.9432 89.1264 0.379161 85.6661 0 81.4576Z" fill="black"/>
<path d="M63.0355 78.1841L74.5051 81.5976C73.8889 84.4501 72.6093 87.1622 70.8557 89.547C69.2442 91.6512 67.1115 93.2879 64.6943 94.3634C62.2298 95.4389 59.1017 96 55.3101 96C50.7128 96 46.9211 95.3453 44.03 94.036C41.0916 92.7267 38.5796 90.3887 36.4468 87.0687C34.3141 83.7486 33.2714 79.4934 33.2714 74.3029C33.2714 67.3823 35.1198 62.0516 38.864 58.3575C42.6082 54.6634 47.869 52.793 54.6939 52.793C60.0496 52.793 64.2204 53.8685 67.301 55.9727C70.3343 58.1237 72.6093 61.397 74.1259 65.7925L62.5615 68.3176C62.2772 67.3356 61.8506 66.3536 61.2819 65.5119C60.5709 64.5299 59.6704 63.7818 58.5803 63.2206C57.4902 62.6595 56.258 62.4257 55.0257 62.4257C52.0398 62.4257 49.7649 63.5947 48.2008 65.9795C47.0159 67.7097 46.3998 70.4686 46.3998 74.2094C46.3998 78.8388 47.1107 82.0185 48.5326 83.7486C49.9544 85.4788 51.945 86.3205 54.5518 86.3205C57.0637 86.3205 58.9595 85.6191 60.2392 84.263C61.5188 82.8134 62.4667 80.8027 63.0355 78.1841ZM89.8137 53.4944H102.895V68.1305H117.208V53.4944H130.384V95.2986H117.208V78.3711H102.895V95.2986H89.8137V53.4944Z" fill="black"/>
<path d="M128.583 74.3964C128.583 67.5693 130.526 62.2385 134.365 58.4509C138.204 54.6633 143.607 52.7461 150.479 52.7461C157.541 52.7461 162.944 54.6165 166.783 58.3574C170.622 62.0983 172.518 67.3355 172.518 74.069C172.518 78.9789 171.665 82.9536 170.006 86.0866C168.395 89.1728 165.883 91.6979 162.802 93.3813C159.627 95.1114 155.693 95.9999 151.001 95.9999C146.214 95.9999 142.28 95.2517 139.152 93.7553C135.929 92.1655 133.275 89.6872 131.521 86.6477C129.578 83.3744 128.583 79.3062 128.583 74.3964ZM141.664 74.4431C141.664 78.6516 142.47 81.691 144.034 83.5615C145.598 85.3852 147.778 86.3204 150.527 86.3204C153.323 86.3204 155.503 85.4319 157.067 83.6082C158.631 81.7846 159.39 78.5581 159.39 73.882C159.39 69.9541 158.584 67.0549 156.973 65.278C155.361 63.4543 153.181 62.5659 150.432 62.5659C148.015 62.4723 145.693 63.5011 144.081 65.3248C142.47 67.1484 141.664 70.1879 141.664 74.4431ZM185.931 74.3964C185.931 67.5693 187.874 62.2385 191.713 58.4509C195.552 54.6633 200.955 52.7461 207.827 52.7461C214.889 52.7461 220.34 54.6165 224.131 58.3574C227.923 62.0983 229.866 67.3355 229.866 74.069C229.866 78.9789 229.013 82.9536 227.354 86.0866C225.743 89.1728 223.231 91.6979 220.15 93.3813C216.975 95.1114 213.041 95.9999 208.349 95.9999C203.562 95.9999 199.628 95.2517 196.5 93.7553C193.277 92.1655 190.623 89.6872 188.869 86.6477C186.926 83.3744 185.931 79.3062 185.931 74.3964ZM199.012 74.4431C199.012 78.6516 199.818 81.691 201.382 83.5615C202.946 85.3852 205.126 86.3204 207.875 86.3204C210.671 86.3204 212.851 85.4319 214.415 83.6082C215.979 81.7846 216.738 78.5581 216.738 73.882C216.738 69.9541 215.932 67.0549 214.321 65.278C212.709 63.4543 210.529 62.5659 207.78 62.5659C205.363 62.4723 202.993 63.5011 201.429 65.3248C199.818 67.1484 199.012 70.1879 199.012 74.4431Z" fill="black"/>
<path d="M228.492 53.4946H241.573V85.0114H262V95.2988H228.444V53.4946H228.492Z" fill="black"/>
<path d="M214.074 51.0819C227.243 41.2901 231.304 24.6916 223.144 14.008C214.984 3.32439 197.693 2.60137 184.523 12.3931C171.353 22.1848 167.292 38.7833 175.452 49.4669C183.612 60.1506 200.904 60.8736 214.074 51.0819Z" fill="white"/>
<mask id="mask0_10_231" style="mask-type:luminance" maskUnits="userSpaceOnUse" x="171" y="5" width="57" height="53">
<path d="M214.074 51.0819C227.243 41.2901 231.304 24.6916 223.144 14.008C214.984 3.32439 197.693 2.60137 184.523 12.3931C171.353 22.1848 167.292 38.7833 175.452 49.4669C183.612 60.1506 200.904 60.8736 214.074 51.0819Z" fill="white"/>
</mask>
<g mask="url(#mask0_10_231)">
<path d="M141.865 26.4385L209.921 -24.1609L257.014 37.4947L188.958 88.094L141.865 26.4385Z" fill="white"/>
<mask id="mask1_10_231" style="mask-type:luminance" maskUnits="userSpaceOnUse" x="141" y="-25" width="117" height="114">
<path d="M141.865 26.4385L209.921 -24.1609L257.014 37.4947L188.958 88.094L141.865 26.4385Z" fill="white"/>
</mask>
<g mask="url(#mask1_10_231)">
<path d="M214.074 51.0819C227.243 41.2901 231.305 24.6916 223.144 14.008C214.984 3.32439 197.693 2.60137 184.523 12.3931C171.353 22.1848 167.292 38.7833 175.452 49.4669C183.612 60.1506 200.904 60.8736 214.074 51.0819Z" fill="white"/>
<mask id="mask2_10_231" style="mask-type:luminance" maskUnits="userSpaceOnUse" x="171" y="5" width="57" height="53">
<path d="M214.074 51.0819C227.243 41.2901 231.305 24.6916 223.144 14.008C214.984 3.32439 197.693 2.60137 184.523 12.3931C171.353 22.1848 167.292 38.7833 175.452 49.4669C183.612 60.1506 200.904 60.8736 214.074 51.0819Z" fill="white"/>
</mask>
<g mask="url(#mask2_10_231)">
<path d="M160.817 30.5557L208.472 -4.87433L238.05 33.8523L190.395 69.2823L160.817 30.5557Z" fill="white"/>
<mask id="mask3_10_231" style="mask-type:luminance" maskUnits="userSpaceOnUse" x="160" y="-5" width="79" height="75">
<path d="M160.817 30.5557L208.472 -4.87433L238.05 33.8523L190.395 69.2823L160.817 30.5557Z" fill="white"/>
</mask>
<g mask="url(#mask3_10_231)">
<path d="M214.074 51.0814C227.243 41.2896 231.305 24.6911 223.144 14.0075C214.984 3.3239 197.693 2.60088 184.523 12.3926C171.353 22.1843 167.292 38.7828 175.452 49.4665C183.612 60.1501 200.904 60.8731 214.074 51.0814Z" fill="white" stroke="black" stroke-width="4" stroke-miterlimit="10"/>
</g>
<mask id="mask4_10_231" style="mask-type:luminance" maskUnits="userSpaceOnUse" x="167" y="-3" width="65" height="71">
<path d="M167.608 53.7407L183.966 -2.77817L231.3 10.6602L214.941 67.1791L167.608 53.7407Z" fill="white"/>
</mask>
<g mask="url(#mask4_10_231)">
<path d="M160.817 30.4873L208.403 -4.87446L238.05 33.9204L190.463 69.2822L160.817 30.4873Z" stroke="black" stroke-width="4" stroke-miterlimit="10"/>
</g>
<path d="M214.074 51.0819C227.243 41.2901 231.305 24.6916 223.144 14.008C214.984 3.32439 197.693 2.60137 184.523 12.3931C171.353 22.1848 167.292 38.7833 175.452 49.4669C183.612 60.1506 200.904 60.8736 214.074 51.0819Z" stroke="black" stroke-width="4" stroke-miterlimit="10"/>
<path d="M160.817 30.5557L208.472 -4.87433L238.05 33.8523L190.395 69.2823L160.817 30.5557Z" fill="white"/>
<mask id="mask5_10_231" style="mask-type:luminance" maskUnits="userSpaceOnUse" x="160" y="-5" width="79" height="75">
<path d="M160.817 30.5557L208.472 -4.87433L238.05 33.8523L190.395 69.2823L160.817 30.5557Z" fill="white"/>
</mask>
<g mask="url(#mask5_10_231)">
<path d="M214.074 51.0814C227.243 41.2896 231.305 24.6911 223.144 14.0075C214.984 3.3239 197.693 2.60088 184.523 12.3926C171.353 22.1843 167.292 38.7828 175.452 49.4665C183.612 60.1501 200.904 60.8731 214.074 51.0814Z" fill="white" stroke="black" stroke-width="4" stroke-miterlimit="10"/>
</g>
<mask id="mask6_10_231" style="mask-type:luminance" maskUnits="userSpaceOnUse" x="167" y="-3" width="65" height="71">
<path d="M167.608 53.7407L183.966 -2.77817L231.3 10.6602L214.941 67.1791L167.608 53.7407Z" fill="white"/>
</mask>
<g mask="url(#mask6_10_231)">
<path d="M160.817 30.4873L208.403 -4.87446L238.05 33.9204L190.463 69.2822L160.817 30.4873Z" stroke="black" stroke-width="4" stroke-miterlimit="10"/>
</g>
<path d="M141.865 26.4385L209.921 -24.1609L257.014 37.4947L188.958 88.094L141.865 26.4385Z" stroke="black" stroke-width="4" stroke-miterlimit="10"/>
</g>
<path d="M214.074 51.0819C227.243 41.2901 231.305 24.6916 223.144 14.008C214.984 3.32439 197.693 2.60137 184.523 12.3931C171.353 22.1848 167.292 38.7833 175.452 49.4669C183.612 60.1506 200.904 60.8736 214.074 51.0819Z" stroke="black" stroke-width="4" stroke-miterlimit="10"/>
<path d="M185.978 28.6644L190.718 25.3911L196.548 33.5743C197.543 34.8836 198.301 36.2864 198.87 37.8295C199.202 38.9985 199.107 40.2611 198.633 41.3833C198.017 42.7862 197.022 43.9552 195.694 44.7969C194.13 45.8724 192.803 46.4803 191.666 46.6673C190.576 46.8544 189.438 46.6673 188.396 46.1997C187.258 45.6386 186.263 44.8436 185.505 43.8149L189.58 40.074C189.912 40.5884 190.339 41.056 190.813 41.4301C191.145 41.6639 191.524 41.8042 191.95 41.8042C192.282 41.8042 192.614 41.6639 192.851 41.4769C193.325 41.1963 193.656 40.6352 193.609 40.074C193.467 39.2791 193.135 38.4842 192.614 37.8763L185.978 28.6644ZM200.197 33.8548L204.51 30.4881C204.984 31.0492 205.6 31.47 206.264 31.7038C207.211 31.9844 208.207 31.7974 209.012 31.1895C209.581 30.8154 210.055 30.301 210.245 29.6464C210.529 28.8047 210.055 27.8695 209.202 27.5889C209.06 27.5421 208.918 27.4954 208.776 27.4954C208.207 27.4486 207.211 27.6824 205.742 28.2903C203.325 29.2723 201.429 29.6464 200.007 29.5061C198.633 29.3658 197.353 28.6644 196.595 27.4954C196.026 26.7004 195.742 25.7652 195.694 24.83C195.694 23.7545 195.979 22.679 196.595 21.7905C197.495 20.528 198.586 19.4525 199.913 18.6108C201.903 17.2547 203.657 16.6001 205.173 16.6001C206.69 16.6001 208.112 17.3015 209.439 18.7511L205.173 22.0711C204.32 20.9956 202.709 20.7618 201.619 21.6035L201.477 21.7438C201.003 22.0244 200.671 22.4452 200.481 22.9596C200.339 23.3337 200.434 23.7545 200.671 24.0818C200.861 24.3156 201.145 24.5027 201.477 24.5027C201.856 24.5494 202.519 24.3624 203.467 23.9415C205.837 22.9596 207.638 22.3984 208.87 22.2114C209.913 22.0244 211.003 22.1179 211.998 22.5387C212.899 22.9128 213.657 23.5675 214.179 24.3624C214.842 25.2976 215.221 26.4199 215.269 27.5889C215.316 28.8047 214.984 29.9737 214.321 31.0024C213.468 32.265 212.378 33.3405 211.098 34.1822C208.491 35.9591 206.358 36.7073 204.652 36.4267C202.804 36.1461 201.287 35.2109 200.197 33.8548Z" fill="black"/>
</g>
</g>
</g>
<defs>
<clipPath id="clip0_10_231">
<rect width="262" height="96" fill="white"/>
</clipPath>
</defs>
</svg>
